<svg width="23" height="16" viewBox="0 0 23 16" fill="none" xmlns="http://www.w3.org/2000/svg">
<path d="M0.385457 7.08664L0.386642 7.08542L7.25011 0.375737C7.76429 -0.126909 8.59595 -0.125038 9.10777 0.380123C9.61952 0.885221 9.61755 1.70219 9.10337 2.2049L4.49524 6.70968L21.6867 6.70968C22.4121 6.70968 23.0002 7.28736 23.0002 8C23.0002 8.71265 22.4121 9.29032 21.6867 9.29032L4.4953 9.29032L9.1033 13.7951C9.61749 14.2978 9.61946 15.1148 9.1077 15.6199C8.59589 16.1251 7.76416 16.1268 7.25004 15.6243L0.386575 8.91458L0.385392 8.91335C-0.129052 8.40897 -0.127412 7.58935 0.385457 7.08664Z" fill="white"/>
<path d="M0.385457 7.08664L0.386642 7.08542L7.25011 0.375737C7.76429 -0.126909 8.59595 -0.125038 9.10777 0.380123C9.61952 0.885221 9.61755 1.70219 9.10337 2.2049L4.49524 6.70968L21.6867 6.70968C22.4121 6.70968 23.0002 7.28736 23.0002 8C23.0002 8.71265 22.4121 9.29032 21.6867 9.29032L4.4953 9.29032L9.1033 13.7951C9.61749 14.2978 9.61946 15.1148 9.1077 15.6199C8.59589 16.1251 7.76416 16.1268 7.25004 15.6243L0.386575 8.91458L0.385392 8.91335C-0.129052 8.40897 -0.127412 7.58935 0.385457 7.08664Z" fill="white"/>
</svg>
