<svg width="227" height="194" viewBox="0 0 227 194" fill="none" xmlns="http://www.w3.org/2000/svg">
<circle cx="115" cy="114" r="54" fill="#D2FFD0"/>
<circle cx="115" cy="114" r="79" stroke="#6CC51D" stroke-width="2" stroke-dasharray="4 4"/>
<path d="M135.978 98.1299C134.616 96.6229 132.406 96.6239 131.042 98.1299L108.831 122.685L98.9584 111.772C97.5953 110.265 95.3856 110.265 94.0224 111.772C92.6592 113.279 92.6592 115.722 94.0224 117.228L106.362 130.87C107.043 131.623 107.936 132 108.83 132C109.723 132 110.617 131.624 111.298 130.87L135.978 103.586C137.341 102.08 137.341 99.6367 135.978 98.1299Z" fill="#6CC51D"/>
<path d="M20.7369 29.7644L21.7528 27.1629C21.791 27.065 21.8897 27 22.0001 27C22.1105 27 22.2092 27.065 22.2474 27.1629L23.2633 29.7644C24.0856 31.8704 25.8434 33.5306 28.0732 34.3071L30.8277 35.2666C30.9312 35.3026 31 35.3959 31 35.5001C31 35.6044 30.9312 35.6976 30.8277 35.7337L28.073 36.6932C25.8433 37.4698 24.0855 39.1299 23.2633 41.2358L22.2474 43.8373C22.2092 43.935 22.1105 44 22.0001 44C21.8897 44 21.791 43.935 21.7528 43.8373L20.7369 41.2358C19.9145 39.1299 18.1569 37.4698 15.927 36.6932L13.1723 35.7337C13.0688 35.6976 13 35.6044 13 35.5001C13 35.3959 13.0688 35.3026 13.1723 35.2666L15.9268 34.3071C18.1567 33.5306 19.9145 31.8706 20.7369 29.7644Z" fill="#6CC51D"/>
<path d="M214.456 155.415L215.698 152.201C215.745 152.08 215.865 152 216 152C216.135 152 216.256 152.08 216.302 152.201L217.544 155.415C218.549 158.016 220.698 160.067 223.423 161.026L226.789 162.212C226.916 162.256 227 162.371 227 162.5C227 162.629 226.916 162.744 226.789 162.789L223.423 163.974C220.697 164.933 218.549 166.984 217.544 169.585L216.302 172.799C216.256 172.92 216.135 173 216 173C215.865 173 215.745 172.92 215.698 172.799L214.456 169.585C213.451 166.984 211.303 164.933 208.577 163.974L205.211 162.789C205.084 162.744 205 162.629 205 162.5C205 162.371 205.084 162.256 205.211 162.212L208.577 161.026C211.303 160.067 213.451 158.017 214.456 155.415Z" fill="#6CC51D"/>
<path d="M9.45616 155.415L10.6978 152.201C10.7445 152.08 10.8652 152 11.0001 152C11.135 152 11.2557 152.08 11.3024 152.201L12.544 155.415C13.5491 158.016 15.6975 160.067 18.4228 161.026L21.7894 162.212C21.9159 162.256 22 162.371 22 162.5C22 162.629 21.9159 162.744 21.7894 162.789L18.4226 163.974C15.6973 164.933 13.5489 166.984 12.544 169.585L11.3024 172.799C11.2557 172.92 11.135 173 11.0001 173C10.8652 173 10.7445 172.92 10.6978 172.799L9.45616 169.585C8.4511 166.984 6.30285 164.933 3.57739 163.974L0.210613 162.789C0.0840557 162.744 0 162.629 0 162.5C0 162.371 0.0840557 162.256 0.210613 162.212L3.5772 161.026C6.30265 160.067 8.4511 158.017 9.45616 155.415Z" fill="#D2FFD0"/>
<path d="M188.737 2.76437L189.753 0.162895C189.791 0.0649529 189.89 0 190 0C190.11 0 190.209 0.0649529 190.247 0.162895L191.263 2.76437C192.086 4.87042 193.843 6.5306 196.073 7.3071L198.828 8.26658C198.931 8.30265 199 8.3959 199 8.50015C199 8.60439 198.931 8.69764 198.828 8.73371L196.073 9.69319C193.843 10.4698 192.085 12.1299 191.263 14.2358L190.247 16.8373C190.209 16.935 190.11 17 190 17C189.89 17 189.791 16.935 189.753 16.8373L188.737 14.2358C187.915 12.1299 186.157 10.4698 183.927 9.69319L181.172 8.73371C181.069 8.69764 181 8.60439 181 8.50015C181 8.3959 181.069 8.30265 181.172 8.26658L183.927 7.3071C186.157 6.5306 187.915 4.87057 188.737 2.76437Z" fill="#D2FFD0"/>
</svg>
