<svg width="23" height="22" viewBox="0 0 23 22" fill="none" xmlns="http://www.w3.org/2000/svg">
<path d="M19.1704 21.3741H4.02944C2.89992 21.3741 1.98096 20.4552 1.98096 19.3256V8.54796C1.98096 8.15448 2.29994 7.83545 2.69347 7.83545C3.087 7.83545 3.40599 8.15448 3.40599 8.54796V19.3256C3.40599 19.6694 3.68565 19.9491 4.02944 19.9491H19.1704C19.5142 19.9491 19.7938 19.6694 19.7938 19.3256V8.54796C19.7938 8.15448 20.1128 7.83545 20.5063 7.83545C20.8999 7.83545 21.2188 8.15448 21.2188 8.54796V19.3256C21.2188 20.4551 20.2999 21.3741 19.1704 21.3741Z" fill="#868889"/>
<path d="M22.2876 11.0413C22.1053 11.0413 21.923 10.9718 21.7839 10.8326L12.9224 1.9713C12.1932 1.24205 11.0067 1.24205 10.2774 1.9713L1.41605 10.8327C1.13781 11.1109 0.686655 11.1109 0.408418 10.8327C0.130137 10.5544 0.130137 10.1033 0.408418 9.82504L9.26978 0.963631C10.5546 -0.32121 12.6453 -0.32121 13.9301 0.963631L22.7914 9.825C23.0697 10.1033 23.0697 10.5544 22.7914 10.8326C22.6524 10.9718 22.47 11.0413 22.2876 11.0413Z" fill="#868889"/>
<path d="M14.45 21.374H8.74987C8.35634 21.374 8.03735 21.055 8.03735 20.6615V14.3379C8.03735 13.1102 9.03621 12.1113 10.264 12.1113H12.9359C14.1636 12.1113 15.1625 13.1102 15.1625 14.3379V20.6615C15.1625 21.055 14.8435 21.374 14.45 21.374ZM9.46238 19.949H13.7375V14.3379C13.7375 13.896 13.3779 13.5364 12.9359 13.5364H10.264C9.82198 13.5364 9.46238 13.896 9.46238 14.3379V19.949Z" fill="#868889"/>
</svg>
