<svg width="15" height="15" viewBox="0 0 15 15" fill="none" xmlns="http://www.w3.org/2000/svg">
<path d="M14.9609 5.60639C14.8627 5.30266 14.5933 5.08693 14.2746 5.05821L9.94517 4.66509L8.2332 0.658071C8.10697 0.364408 7.81949 0.174316 7.50008 0.174316C7.18066 0.174316 6.89318 0.364408 6.76695 0.658757L5.05498 4.66509L0.724885 5.05821C0.406731 5.08762 0.138017 5.30266 0.0392523 5.60639C-0.0595127 5.91013 0.031699 6.24327 0.272374 6.45328L3.5449 9.3233L2.57991 13.5741C2.50929 13.8866 2.6306 14.2097 2.88993 14.3972C3.02933 14.4979 3.19241 14.5492 3.35686 14.5492C3.49866 14.5492 3.63931 14.5109 3.76554 14.4354L7.50008 12.2034L11.2332 14.4354C11.5064 14.5997 11.8508 14.5847 12.1095 14.3972C12.369 14.2091 12.4902 13.8859 12.4196 13.5741L11.4546 9.3233L14.7271 6.45385C14.9678 6.24327 15.0597 5.9107 14.9609 5.60639Z" fill="#FFC107"/>
</svg>
