<svg width="16" height="15" viewBox="0 0 16 15" fill="none" xmlns="http://www.w3.org/2000/svg">
<path d="M15.9821 5.52433C15.9273 5.35645 15.7624 5.25116 15.488 5.20848L10.8927 4.54033L8.83325 0.375259C8.705 0.125044 8.55555 0 8.38472 0C8.20777 0 8.05823 0.125044 7.93623 0.375259L5.87651 4.54033L1.28119 5.20848C1.00661 5.25119 0.841805 5.35645 0.786946 5.52433C0.732151 5.69221 0.802272 5.87375 0.9975 6.06904L4.32956 9.30953L3.54233 13.8864C3.51187 14.088 3.53011 14.2446 3.59732 14.3578C3.66439 14.4708 3.76821 14.5272 3.90855 14.5272C4.01233 14.5272 4.13436 14.4906 4.2747 14.4171L8.38492 12.2567L12.495 14.4171C12.6353 14.4904 12.7575 14.5272 12.8613 14.5272C13.0017 14.5272 13.1056 14.4708 13.1725 14.3578C13.2395 14.2446 13.2578 14.088 13.2273 13.8864L12.4401 9.30953L15.7628 6.06904C15.9643 5.87375 16.0374 5.69221 15.9821 5.52433ZM11.6251 8.46731L11.1766 8.89762L11.2866 9.50178L11.8357 12.7515L8.92491 11.2137L8.38472 10.9297V2.11452L9.8402 5.06212L10.1146 5.61128L10.719 5.70285L13.9779 6.17879L11.6251 8.46731Z" fill="#FFC107"/>
</svg>
