<svg width="36" height="12" viewBox="0 0 36 12" fill="none" xmlns="http://www.w3.org/2000/svg">
<path d="M14.715 0L12.9083 11.2433H15.7962L17.6018 0H14.715ZM23.4259 4.57989C22.4168 4.08153 21.7981 3.74518 21.7981 3.23546C21.8104 2.77202 22.3213 2.29723 23.462 2.29723C24.4002 2.27366 25.0898 2.49415 25.613 2.71354L25.8751 2.83051L26.2677 0.478126C25.6973 0.257633 24.7928 0.0146826 23.6757 0.0146826C20.8238 0.0146826 18.8157 1.49743 18.8032 3.61809C18.7797 5.18301 20.2409 6.05141 21.3345 6.57235C22.4517 7.10674 22.832 7.45322 22.832 7.92801C22.8196 8.65698 21.9286 8.99334 21.0973 8.99334C19.9453 8.99334 19.3265 8.8201 18.3872 8.41391L18.0069 8.24067L17.603 10.6853C18.2814 10.9869 19.529 11.2523 20.8239 11.2659C23.8547 11.2659 25.8268 9.8056 25.8516 7.54551C25.8615 6.30571 25.0909 5.35612 23.4259 4.57989ZM33.6713 0.034795H31.437C30.7485 0.034795 30.2253 0.232832 29.9272 0.939348L25.6375 11.2433H28.6683L29.503 9.01246H32.8938L33.3269 11.2523H36L33.6713 0.034795ZM30.3435 6.76114C30.402 6.76681 31.5068 3.11948 31.5068 3.11948L32.3866 6.76114C32.3866 6.76114 30.914 6.76114 30.3435 6.76114ZM10.4952 0L7.66579 7.63879L7.35757 6.13235C6.83441 4.39419 5.19422 2.50538 3.36377 1.56714L5.95466 11.2321H9.01022L13.5508 0.0012332H10.4952V0Z" fill="#2394BC"/>
<path d="M6.40578 1.45027C6.18529 0.592974 5.4821 0.0147801 4.52708 0.00244141H0.0461469L0 0.210472C3.49544 1.07221 6.42935 3.7238 7.38116 6.21796L6.40578 1.45027Z" fill="#EFC75E"/>
</svg>
